<mxfile host="app.diagrams.net" modified="2024-01-01T10:02:18.021Z" agent="Mozilla/5.0 (Macintosh; Intel Mac OS X 10_15_7) AppleWebKit/537.36 (KHTML, like Gecko) Chrome/118.0.0.0 Safari/537.36" etag="1ep3CoVHkzgeP5ZDsfSG" version="22.1.16" type="github">
  <diagram name="Page-1" id="e3a06f82-3646-2815-327d-82caf3d4e204">
    <mxGraphModel dx="2206" dy="1177" grid="1" gridSize="10" guides="1" tooltips="1" connect="1" arrows="1" fold="1" page="1" pageScale="1.5" pageWidth="1169" pageHeight="826" background="none" math="0" shadow="0">
      <root>
        <mxCell id="0" style=";html=1;" />
        <mxCell id="1" style=";html=1;" parent="0" />
        <mxCell id="6a7d8f32e03d9370-61" value="BFF" style="whiteSpace=wrap;html=1;fillColor=#f8cecc;fontSize=14;strokeColor=none;verticalAlign=top;" parent="1" vertex="1">
          <mxGeometry x="640" y="879" width="493" height="360" as="geometry" />
        </mxCell>
        <mxCell id="6a7d8f32e03d9370-58" value="" style="whiteSpace=wrap;html=1;fillColor=#dae8fc;fontSize=14;strokeColor=none;verticalAlign=top;" parent="1" vertex="1">
          <mxGeometry x="170" y="879" width="390" height="471" as="geometry" />
        </mxCell>
        <mxCell id="6a7d8f32e03d9370-6" value="Client" style="verticalLabelPosition=bottom;aspect=fixed;html=1;verticalAlign=top;strokeColor=none;shape=mxgraph.citrix.pda;fillColor=#66B2FF;gradientColor=#0066CC;fontSize=14;" parent="1" vertex="1">
          <mxGeometry x="190.00000000000006" y="1190" width="30" height="61" as="geometry" />
        </mxCell>
        <mxCell id="rtdDnOYVTxenmwvRKnlF-2" value="BFF A" style="verticalLabelPosition=top;aspect=fixed;html=1;verticalAlign=bottom;strokeColor=none;shape=mxgraph.citrix.cache_server;fillColor=#66B2FF;gradientColor=#0066CC;fontSize=14;labelPosition=center;align=center;" vertex="1" parent="1">
          <mxGeometry x="830" y="950" width="71" height="97.5" as="geometry" />
        </mxCell>
        <mxCell id="rtdDnOYVTxenmwvRKnlF-3" value="Origin" style="whiteSpace=wrap;html=1;fillColor=#d5e8d4;fontSize=14;strokeColor=#82b366;verticalAlign=top;" vertex="1" parent="1">
          <mxGeometry x="1203" y="879" width="493" height="360" as="geometry" />
        </mxCell>
        <mxCell id="rtdDnOYVTxenmwvRKnlF-4" value="Origin A" style="verticalLabelPosition=top;aspect=fixed;html=1;verticalAlign=bottom;strokeColor=none;shape=mxgraph.citrix.cache_server;fillColor=#66B2FF;gradientColor=#0066CC;fontSize=14;labelPosition=center;align=center;" vertex="1" parent="1">
          <mxGeometry x="1400" y="960" width="71" height="97.5" as="geometry" />
        </mxCell>
        <mxCell id="rtdDnOYVTxenmwvRKnlF-8" value="Origin B" style="verticalLabelPosition=top;aspect=fixed;html=1;verticalAlign=bottom;strokeColor=none;shape=mxgraph.citrix.cache_server;fillColor=#66B2FF;gradientColor=#0066CC;fontSize=14;labelPosition=center;align=center;" vertex="1" parent="1">
          <mxGeometry x="1400" y="1110" width="71" height="97.5" as="geometry" />
        </mxCell>
        <mxCell id="rtdDnOYVTxenmwvRKnlF-17" value="" style="whiteSpace=wrap;html=1;" vertex="1" parent="1">
          <mxGeometry x="260" y="930" width="200" height="350" as="geometry" />
        </mxCell>
        <mxCell id="rtdDnOYVTxenmwvRKnlF-18" value="機能A" style="whiteSpace=wrap;html=1;" vertex="1" parent="1">
          <mxGeometry x="270" y="960" width="180" height="70" as="geometry" />
        </mxCell>
        <mxCell id="rtdDnOYVTxenmwvRKnlF-20" value="機能B" style="whiteSpace=wrap;html=1;" vertex="1" parent="1">
          <mxGeometry x="270" y="1047.5" width="180" height="122.5" as="geometry" />
        </mxCell>
        <mxCell id="rtdDnOYVTxenmwvRKnlF-21" value="機能C" style="whiteSpace=wrap;html=1;" vertex="1" parent="1">
          <mxGeometry x="270" y="1190" width="180" height="70" as="geometry" />
        </mxCell>
        <mxCell id="rtdDnOYVTxenmwvRKnlF-22" value="BFF B" style="verticalLabelPosition=top;aspect=fixed;html=1;verticalAlign=bottom;strokeColor=none;shape=mxgraph.citrix.cache_server;fillColor=#66B2FF;gradientColor=#0066CC;fontSize=14;labelPosition=center;align=center;" vertex="1" parent="1">
          <mxGeometry x="830" y="1120" width="71" height="97.5" as="geometry" />
        </mxCell>
      </root>
    </mxGraphModel>
  </diagram>
</mxfile>
